<svg height="512pt" viewBox="0 -79 512 512" width="512pt" xmlns="http://www.w3.org/2000/svg"><path d="m7.5 7.5h497v338h-497zm0 0" fill="#e0e0e0"/><path d="m475.25 7.5v246.25c0 34.519531-27.980469 62.5-62.5 62.5h-405.25v29.25h497v-338zm0 0" fill="#b8b8b8"/><path d="m127.167969 262.167969v-223.667969c0-4.140625-3.359375-7.5-7.5-7.5-4.144531 0-7.5 3.359375-7.5 7.5v223.667969c0 4.140625 3.355469 7.5 7.5 7.5 4.140625 0 7.5-3.359375 7.5-7.5zm0 0"/><path d="m101.667969 31c-4.144531 0-7.5 3.359375-7.5 7.5v223.667969c0 4.140625 3.355469 7.5 7.5 7.5 4.140625 0 7.5-3.359375 7.5-7.5v-223.667969c0-4.140625-3.359375-7.5-7.5-7.5zm0 0"/><path d="m237.667969 269.667969c4.140625 0 7.5-3.359375 7.5-7.5v-223.667969c0-4.140625-3.359375-7.5-7.5-7.5-4.144531 0-7.5 3.359375-7.5 7.5v223.667969c0 4.140625 3.355469 7.5 7.5 7.5zm0 0"/><path d="m276 262.167969v-223.667969c0-4.140625-3.355469-7.5-7.5-7.5s-7.5 3.359375-7.5 7.5v223.667969c0 4.140625 3.355469 7.5 7.5 7.5s7.5-3.359375 7.5-7.5zm0 0"/><path d="m294.417969 262.167969c0 4.140625 3.355469 7.5 7.5 7.5 4.140625 0 7.5-3.359375 7.5-7.5v-92.917969c0-4.140625-3.359375-7.5-7.5-7.5-4.144531 0-7.5 3.359375-7.5 7.5zm0 0"/><path d="m301.917969 148.75c4.140625 0 7.5-3.359375 7.5-7.5v-102.75c0-4.140625-3.359375-7.5-7.5-7.5-4.144531 0-7.5 3.359375-7.5 7.5v102.75c0 4.140625 3.355469 7.5 7.5 7.5zm0 0"/><path d="m227.167969 262.167969v-223.667969c0-4.140625-3.359375-7.5-7.5-7.5-4.144531 0-7.5 3.359375-7.5 7.5v223.667969c0 4.140625 3.355469 7.5 7.5 7.5 4.140625 0 7.5-3.359375 7.5-7.5zm0 0"/><path d="m197.667969 262.167969v-223.667969c0-4.140625-3.359375-7.5-7.5-7.5-4.144531 0-7.5 3.359375-7.5 7.5v223.667969c0 4.140625 3.355469 7.5 7.5 7.5 4.140625 0 7.5-3.359375 7.5-7.5zm0 0"/><path d="m161.5 262.167969v-223.667969c0-4.140625-3.355469-7.5-7.5-7.5s-7.5 3.359375-7.5 7.5v223.667969c0 4.140625 3.355469 7.5 7.5 7.5s7.5-3.359375 7.5-7.5zm0 0"/><path d="m179.667969 262.167969v-223.667969c0-4.140625-3.359375-7.5-7.5-7.5-4.144531 0-7.5 3.359375-7.5 7.5v223.667969c0 4.140625 3.355469 7.5 7.5 7.5 4.140625 0 7.5-3.359375 7.5-7.5zm0 0"/><path d="m430.5 262.167969v-223.667969c0-4.140625-3.355469-7.5-7.5-7.5s-7.5 3.359375-7.5 7.5v223.667969c0 4.140625 3.355469 7.5 7.5 7.5s7.5-3.359375 7.5-7.5zm0 0"/><path d="m412.5 262.167969v-223.667969c0-4.140625-3.355469-7.5-7.5-7.5s-7.5 3.359375-7.5 7.5v223.667969c0 4.140625 3.355469 7.5 7.5 7.5s7.5-3.359375 7.5-7.5zm0 0"/><path d="m378 262.167969v-223.667969c0-4.140625-3.355469-7.5-7.5-7.5s-7.5 3.359375-7.5 7.5v223.667969c0 4.140625 3.355469 7.5 7.5 7.5s7.5-3.359375 7.5-7.5zm0 0"/><path d="m341.832031 262.167969v-223.667969c0-4.140625-3.355469-7.5-7.5-7.5-4.140625 0-7.5 3.359375-7.5 7.5v223.667969c0 4.140625 3.359375 7.5 7.5 7.5 4.144531 0 7.5-3.359375 7.5-7.5zm0 0"/><path d="m360 262.167969v-223.667969c0-4.140625-3.355469-7.5-7.5-7.5s-7.5 3.359375-7.5 7.5v223.667969c0 4.140625 3.355469 7.5 7.5 7.5s7.5-3.359375 7.5-7.5zm0 0"/><path d="m70.332031 269.667969c4.144531 0 7.5-3.359375 7.5-7.5v-223.667969c0-4.140625-3.355469-7.5-7.5-7.5-4.140625 0-7.5 3.359375-7.5 7.5v223.667969c0 4.140625 3.359375 7.5 7.5 7.5zm0 0"/><path d="m30.875 38.5v276c0 4.140625 3.355469 7.5 7.5 7.5s7.5-3.359375 7.5-7.5v-276c0-4.140625-3.355469-7.5-7.5-7.5s-7.5 3.359375-7.5 7.5zm0 0"/><path d="m481.125 314.5v-276c0-4.140625-3.355469-7.5-7.5-7.5s-7.5 3.359375-7.5 7.5v276c0 4.140625 3.355469 7.5 7.5 7.5s7.5-3.359375 7.5-7.5zm0 0"/><path d="m462.832031 314.5v-276c0-4.140625-3.355469-7.5-7.5-7.5-4.140625 0-7.5 3.359375-7.5 7.5v276c0 4.140625 3.359375 7.5 7.5 7.5 4.144531 0 7.5-3.359375 7.5-7.5zm0 0"/><path d="m70.332031 311.667969h18c4.144531 0 7.5-3.359375 7.5-7.5 0-4.144531-3.355469-7.5-7.5-7.5h-18c-4.140625 0-7.5 3.355469-7.5 7.5 0 4.140625 3.359375 7.5 7.5 7.5zm0 0"/><path d="m102 304.167969c0 4.140625 3.355469 7.5 7.5 7.5h105.167969c4.140625 0 7.5-3.359375 7.5-7.5 0-4.144531-3.359375-7.5-7.5-7.5h-105.167969c-4.144531 0-7.5 3.355469-7.5 7.5zm0 0"/><path d="m237.667969 311.667969h30.832031c4.144531 0 7.5-3.359375 7.5-7.5 0-4.144531-3.355469-7.5-7.5-7.5h-30.832031c-4.144531 0-7.5 3.355469-7.5 7.5 0 4.140625 3.355469 7.5 7.5 7.5zm0 0"/><path d="m286.167969 304.167969c0 4.140625 3.355469 7.5 7.5 7.5h30.832031c4.144531 0 7.5-3.359375 7.5-7.5 0-4.144531-3.355469-7.5-7.5-7.5h-30.832031c-4.144531 0-7.5 3.355469-7.5 7.5zm0 0"/><path d="m342.167969 304.167969c0 4.140625 3.355469 7.5 7.5 7.5h73.332031c4.144531 0 7.5-3.359375 7.5-7.5 0-4.144531-3.355469-7.5-7.5-7.5h-73.332031c-4.144531 0-7.5 3.355469-7.5 7.5zm0 0"/><path d="m504.5 0h-425.167969c-4.140625 0-7.5 3.359375-7.5 7.5s3.359375 7.5 7.5 7.5h417.667969v323h-482v-323h36.332031c4.144531 0 7.5-3.359375 7.5-7.5s-3.355469-7.5-7.5-7.5h-43.832031c-4.144531 0-7.5 3.359375-7.5 7.5v338c0 4.140625 3.355469 7.5 7.5 7.5h497c4.144531 0 7.5-3.359375 7.5-7.5v-338c0-4.140625-3.355469-7.5-7.5-7.5zm0 0"/></svg>