<svg height="512pt" viewBox="-60 0 512 512" width="512pt" xmlns="http://www.w3.org/2000/svg"><path d="m356.339844 504.5h-320.710938c-15.535156 0-28.132812-12.59375-28.132812-28.128906v-440.742188c.003906-15.535156 12.597656-28.128906 28.132812-28.128906h320.710938c15.535156 0 28.128906 12.59375 28.128906 28.128906v440.742188c0 15.535156-12.59375 28.128906-28.128906 28.128906zm0 0" fill="#e7e7e7"/><path d="m384.472656 35.632812v440.734376c0 15.535156-12.597656 28.136718-28.132812 28.136718h-27.164063c15.527344 0 28.125-12.601562 28.125-28.136718v-440.734376c0-15.535156-12.597656-28.132812-28.125-28.132812h27.164063c15.535156 0 28.132812 12.597656 28.132812 28.132812zm0 0" fill="#cecece"/><path d="m7.5 85.535156v-49.90625c0-15.535156 12.59375-28.128906 28.128906-28.128906h320.710938c15.535156 0 28.128906 12.59375 28.128906 28.128906v49.90625zm0 0" fill="#838383"/><path d="m384.472656 35.632812v49.902344h-27.171875v-49.902344c0-15.535156-12.597656-28.132812-28.125-28.132812h27.164063c15.535156 0 28.132812 12.597656 28.132812 28.132812zm0 0" fill="#5a5a5a"/><path d="m220.910156 188.148438h-49.851562c-4.433594 0-8.027344-3.59375-8.027344-8.023438v-49.851562c0-4.433594 3.59375-8.027344 8.027344-8.027344h49.851562c4.429688 0 8.023438 3.59375 8.023438 8.027344v49.851562c0 4.429688-3.59375 8.023438-8.023438 8.023438zm0 0" fill="#80e0dc"/><path d="m321.820312 188.148438h-49.851562c-4.433594 0-8.027344-3.59375-8.027344-8.023438v-49.851562c0-4.433594 3.59375-8.027344 8.027344-8.027344h49.851562c4.429688 0 8.023438 3.59375 8.023438 8.027344v49.851562c0 4.429688-3.59375 8.023438-8.023438 8.023438zm0 0" fill="#83e5eb"/><path d="m120 188.148438h-49.851562c-4.433594 0-8.027344-3.59375-8.027344-8.023438v-49.851562c0-4.433594 3.59375-8.027344 8.027344-8.027344h49.851562c4.429688 0 8.023438 3.59375 8.023438 8.027344v49.851562c0 4.429688-3.59375 8.023438-8.023438 8.023438zm0 0" fill="#018d9a"/><path d="m120 188.148438h-12.5625v-65.898438h12.5625c4.429688 0 8.023438 3.589844 8.023438 8.023438v49.851562c0 4.429688-3.59375 8.023438-8.023438 8.023438zm0 0" fill="#007a7e"/><path d="m220.910156 188.148438h-12.5625v-65.898438h12.5625c4.429688 0 8.023438 3.589844 8.023438 8.023438v49.851562c0 4.429688-3.59375 8.023438-8.023438 8.023438zm0 0" fill="#00a8b0"/><path d="m321.820312 188.148438h-12.5625v-65.898438h12.5625c4.429688 0 8.023438 3.589844 8.023438 8.023438v49.851562c0 4.429688-3.59375 8.023438-8.023438 8.023438zm0 0" fill="#5cdae2"/><path d="m120 280.1875h-49.851562c-4.433594 0-8.027344-3.59375-8.027344-8.027344v-49.851562c0-4.429688 3.59375-8.023438 8.027344-8.023438h49.851562c4.429688 0 8.023438 3.589844 8.023438 8.023438v49.851562c0 4.433594-3.59375 8.027344-8.023438 8.027344zm0 0" fill="#fa0"/><path d="m321.820312 280.1875h-49.851562c-4.433594 0-8.027344-3.59375-8.027344-8.027344v-49.851562c0-4.429688 3.59375-8.023438 8.027344-8.023438h49.851562c4.429688 0 8.023438 3.589844 8.023438 8.023438v49.851562c0 4.433594-3.59375 8.027344-8.023438 8.027344zm0 0" fill="#ffe1a8"/><path d="m220.910156 280.1875h-49.851562c-4.433594 0-8.027344-3.59375-8.027344-8.027344v-49.851562c0-4.429688 3.59375-8.023438 8.027344-8.023438h49.851562c4.429688 0 8.023438 3.589844 8.023438 8.023438v49.851562c0 4.433594-3.59375 8.027344-8.023438 8.027344zm0 0" fill="#ffd86e"/><path d="m321.820312 280.1875h-12.5625v-65.902344h12.5625c4.429688 0 8.023438 3.59375 8.023438 8.023438v49.851562c0 4.433594-3.59375 8.027344-8.023438 8.027344zm0 0" fill="#ffd98f"/><path d="m220.910156 280.1875h-12.5625v-65.902344h12.5625c4.429688 0 8.023438 3.59375 8.023438 8.023438v49.851562c0 4.433594-3.59375 8.027344-8.023438 8.027344zm0 0" fill="#ffb509"/><path d="m120 280.1875h-12.5625v-65.902344h12.5625c4.429688 0 8.023438 3.59375 8.023438 8.023438v49.851562c0 4.433594-3.59375 8.027344-8.023438 8.027344zm0 0" fill="#ff9500"/><path d="m120 372.222656h-49.851562c-4.433594 0-8.027344-3.59375-8.027344-8.023437v-49.851563c0-4.433594 3.59375-8.027344 8.027344-8.027344h49.851562c4.429688 0 8.023438 3.59375 8.023438 8.027344v49.851563c0 4.429687-3.59375 8.023437-8.023438 8.023437zm0 0" fill="#e32929"/><path d="m220.910156 372.222656h-49.851562c-4.433594 0-8.027344-3.59375-8.027344-8.023437v-49.851563c0-4.433594 3.59375-8.027344 8.027344-8.027344h49.851562c4.429688 0 8.023438 3.59375 8.023438 8.027344v49.851563c0 4.429687-3.59375 8.023437-8.023438 8.023437zm0 0" fill="#ff6b81"/><path d="m321.820312 372.222656h-49.851562c-4.433594 0-8.027344-3.59375-8.027344-8.023437v-49.851563c0-4.433594 3.59375-8.027344 8.027344-8.027344h49.851562c4.429688 0 8.023438 3.59375 8.023438 8.027344v49.851563c0 4.429687-3.59375 8.023437-8.023438 8.023437zm0 0" fill="#ff9aa9"/><path d="m321.820312 372.222656h-12.5625v-65.898437h12.5625c4.429688 0 8.023438 3.589843 8.023438 8.023437v49.851563c0 4.429687-3.59375 8.023437-8.023438 8.023437zm0 0" fill="#ff7a8e"/><path d="m220.910156 372.222656h-12.5625v-65.898437h12.5625c4.429688 0 8.023438 3.589843 8.023438 8.023437v49.851563c0 4.429687-3.59375 8.023437-8.023438 8.023437zm0 0" fill="#ff435f"/><path d="m120 372.222656h-12.5625v-65.898437h12.5625c4.429688 0 8.023438 3.589843 8.023438 8.023437v49.851563c0 4.429687-3.59375 8.023437-8.023438 8.023437zm0 0" fill="#cb223b"/><path d="m120 464.261719h-49.851562c-4.433594 0-8.027344-3.59375-8.027344-8.027344v-49.851563c0-4.429687 3.59375-8.023437 8.027344-8.023437h49.851562c4.429688 0 8.023438 3.59375 8.023438 8.023437v49.851563c0 4.433594-3.59375 8.027344-8.023438 8.027344zm0 0" fill="#0055ca"/><path d="m220.910156 464.261719h-49.851562c-4.433594 0-8.027344-3.59375-8.027344-8.027344v-49.851563c0-4.429687 3.59375-8.023437 8.027344-8.023437h49.851562c4.429688 0 8.023438 3.59375 8.023438 8.023437v49.851563c0 4.433594-3.59375 8.027344-8.023438 8.027344zm0 0" fill="#0396fd"/><path d="m321.820312 464.261719h-49.851562c-4.433594 0-8.027344-3.59375-8.027344-8.027344v-49.851563c0-4.429687 3.59375-8.023437 8.027344-8.023437h49.851562c4.429688 0 8.023438 3.59375 8.023438 8.023437v49.851563c0 4.433594-3.59375 8.027344-8.023438 8.027344zm0 0" fill="#aed3ff"/><path d="m321.820312 464.261719h-12.5625v-65.902344h12.5625c4.429688 0 8.023438 3.59375 8.023438 8.027344v49.851562c0 4.429688-3.59375 8.023438-8.023438 8.023438zm0 0" fill="#83bfff"/><path d="m220.910156 464.261719h-12.5625v-65.902344h12.5625c4.429688 0 8.023438 3.59375 8.023438 8.027344v49.851562c0 4.429688-3.59375 8.023438-8.023438 8.023438zm0 0" fill="#0077f0"/><path d="m120 464.261719h-12.5625v-65.902344h12.5625c4.429688 0 8.023438 3.59375 8.023438 8.027344v49.851562c0 4.429688-3.59375 8.023438-8.023438 8.023438zm0 0" fill="#00429c"/><path d="m384.472656 203.507812c-4.140625 0-7.5 3.359376-7.5 7.5l-.003906 265.363282c0 11.375-9.253906 20.632812-20.628906 20.632812h-320.710938c-11.375 0-20.632812-9.257812-20.632812-20.632812v-383.335938h361.972656v70.980469c0 4.140625 3.355469 7.5 7.5 7.5 4.140625 0 7.496094-3.359375 7.496094-7.5v-128.386719c0-19.644531-15.980469-35.628906-35.625-35.628906h-202.984375c-4.140625 0-7.5 3.359375-7.5 7.5s3.359375 7.496094 7.5 7.496094h202.984375c11.375 0 20.628906 9.257812 20.628906 20.632812v42.40625h-361.972656v-42.40625c0-11.375 9.257812-20.632812 20.632812-20.632812h71.808594c4.140625 0 7.496094-3.355469 7.496094-7.496094s-3.355469-7.5-7.496094-7.5h-71.808594c-19.648437 0-35.628906 15.984375-35.628906 35.628906v440.742188c0 19.644531 15.980469 35.628906 35.628906 35.628906h320.710938c19.644531 0 35.625-15.984375 35.625-35.628906l.007812-265.363282c0-4.140624-3.359375-7.5-7.5-7.5zm0 0"/><path d="m135.523438 130.273438c0-8.558594-6.964844-15.523438-15.523438-15.523438h-49.851562c-8.558594 0-15.523438 6.964844-15.523438 15.523438v49.851562c0 8.558594 6.964844 15.523438 15.523438 15.523438h49.851562c8.558594 0 15.523438-6.964844 15.523438-15.523438zm-15 49.851562c0 .289062-.234376.523438-.523438.523438h-49.851562c-.289063 0-.523438-.234376-.523438-.523438v-49.851562c0-.289063.234375-.527344.523438-.527344h49.851562c.289062 0 .523438.238281.523438.527344zm0 0"/><path d="m236.433594 130.273438c0-8.558594-6.964844-15.523438-15.523438-15.523438h-49.851562c-8.558594 0-15.523438 6.964844-15.523438 15.523438v49.851562c0 8.558594 6.964844 15.523438 15.523438 15.523438h49.851562c8.558594 0 15.523438-6.964844 15.523438-15.523438zm-15 49.851562c0 .289062-.234375.523438-.523438.523438h-49.851562c-.289063 0-.523438-.234376-.523438-.523438v-49.851562c0-.289063.234375-.527344.523438-.527344h49.851562c.289063 0 .523438.238281.523438.527344zm0 0"/><path d="m337.34375 130.273438c0-8.558594-6.964844-15.523438-15.523438-15.523438h-49.851562c-8.558594 0-15.523438 6.964844-15.523438 15.523438v49.851562c0 8.558594 6.964844 15.523438 15.523438 15.523438h49.851562c8.558594 0 15.523438-6.964844 15.523438-15.523438zm-15 49.851562c0 .289062-.234375.523438-.523438.523438h-49.851562c-.289062 0-.527344-.234376-.527344-.523438v-49.851562c0-.289063.238282-.527344.527344-.527344h49.851562c.289063 0 .523438.238281.523438.527344zm0 0"/><path d="m337.34375 222.308594c0-8.558594-6.964844-15.519532-15.523438-15.519532h-49.851562c-8.558594 0-15.523438 6.960938-15.523438 15.519532v49.851562c0 8.5625 6.964844 15.523438 15.523438 15.523438h49.851562c8.558594 0 15.523438-6.964844 15.523438-15.523438zm-15 49.851562c0 .292969-.234375.527344-.523438.527344h-49.851562c-.289062 0-.527344-.238281-.527344-.527344v-49.851562c0-.289063.238282-.523438.527344-.523438h49.851562c.289063 0 .523438.234375.523438.523438zm0 0"/><path d="m236.433594 222.308594c0-8.558594-6.964844-15.519532-15.523438-15.519532h-49.851562c-8.558594 0-15.523438 6.960938-15.523438 15.519532v49.851562c0 8.5625 6.964844 15.523438 15.523438 15.523438h49.851562c8.558594 0 15.523438-6.964844 15.523438-15.523438zm-15 49.851562c0 .292969-.234375.527344-.523438.527344h-49.851562c-.289063 0-.523438-.238281-.523438-.527344v-49.851562c0-.289063.234375-.523438.523438-.523438h49.851562c.289063 0 .523438.234375.523438.523438zm0 0"/><path d="m135.523438 222.308594c0-8.558594-6.964844-15.519532-15.523438-15.519532h-49.851562c-8.558594 0-15.523438 6.960938-15.523438 15.519532v49.851562c0 8.5625 6.964844 15.523438 15.523438 15.523438h49.851562c8.558594 0 15.523438-6.964844 15.523438-15.523438zm-15 49.851562c0 .292969-.234376.527344-.523438.527344h-49.851562c-.289063 0-.523438-.238281-.523438-.527344v-49.851562c0-.289063.234375-.523438.523438-.523438h49.851562c.289062 0 .523438.234375.523438.523438zm0 0"/><path d="m135.523438 314.347656c0-8.558594-6.964844-15.523437-15.523438-15.523437h-49.851562c-8.558594 0-15.523438 6.964843-15.523438 15.523437v49.851563c0 8.558593 6.964844 15.523437 15.523438 15.523437h49.851562c8.558594 0 15.523438-6.964844 15.523438-15.523437zm-15 49.851563c0 .289062-.234376.527343-.523438.527343h-49.851562c-.289063 0-.523438-.238281-.523438-.527343v-49.851563c0-.289062.234375-.527344.523438-.527344h49.851562c.289062 0 .523438.238282.523438.527344zm0 0"/><path d="m236.433594 314.347656c0-8.558594-6.964844-15.523437-15.523438-15.523437h-49.851562c-8.558594 0-15.523438 6.964843-15.523438 15.523437v49.851563c0 8.558593 6.964844 15.523437 15.523438 15.523437h49.851562c8.558594 0 15.523438-6.964844 15.523438-15.523437zm-15 49.851563c0 .289062-.234375.527343-.523438.527343h-49.851562c-.289063 0-.523438-.238281-.523438-.527343v-49.851563c0-.289062.234375-.527344.523438-.527344h49.851562c.289063 0 .523438.238282.523438.527344zm0 0"/><path d="m337.34375 314.347656c0-8.558594-6.964844-15.523437-15.523438-15.523437h-49.851562c-8.558594 0-15.523438 6.964843-15.523438 15.523437v49.851563c0 8.558593 6.964844 15.523437 15.523438 15.523437h49.851562c8.558594 0 15.523438-6.964844 15.523438-15.523437zm-15 49.851563c0 .289062-.234375.527343-.523438.527343h-49.851562c-.289062 0-.527344-.238281-.527344-.527343v-49.851563c0-.289062.238282-.527344.527344-.527344h49.851562c.289063 0 .523438.238282.523438.527344zm0 0"/><path d="m220.910156 390.859375h-49.851562c-8.5625 0-15.523438 6.964844-15.523438 15.523437v49.851563c0 8.5625 6.964844 15.523437 15.523438 15.523437h49.851562c8.558594 0 15.523438-6.964843 15.523438-15.523437v-49.851563c0-8.558593-6.964844-15.523437-15.523438-15.523437zm.523438 65.375c0 .292969-.234375.527344-.523438.527344h-49.851562c-.289063 0-.523438-.238281-.523438-.527344v-49.851563c0-.289062.234375-.523437.523438-.523437h49.851562c.289063 0 .523438.234375.523438.523437zm0 0"/><path d="m321.820312 390.859375h-49.851562c-8.558594 0-15.523438 6.964844-15.523438 15.523437v49.851563c0 8.5625 6.964844 15.523437 15.523438 15.523437h49.851562c8.558594 0 15.523438-6.964843 15.523438-15.523437v-49.851563c0-8.558593-6.964844-15.523437-15.523438-15.523437zm.523438 65.375c0 .292969-.234375.527344-.523438.527344h-49.851562c-.289062 0-.527344-.238281-.527344-.527344v-49.851563c0-.289062.238282-.523437.527344-.523437h49.851562c.289063 0 .523438.234375.523438.523437zm0 0"/><path d="m120 390.859375h-49.851562c-8.558594 0-15.523438 6.964844-15.523438 15.523437v49.851563c0 8.5625 6.964844 15.523437 15.523438 15.523437h49.851562c8.558594 0 15.519531-6.964843 15.519531-15.523437v-49.851563c.003907-8.558593-6.960937-15.523437-15.519531-15.523437zm.523438 65.375c0 .292969-.234376.527344-.523438.527344h-49.851562c-.289063 0-.523438-.238281-.523438-.527344v-49.851563c0-.289062.234375-.523437.523438-.523437h49.851562c.289062 0 .523438.234375.523438.523437zm0 0"/><path d="m59.503906 50.320312-2.667968 2.671876-2.667969-2.671876c-2.929688-2.929687-7.675781-2.929687-10.605469 0-2.929688 2.929688-2.929688 7.675782 0 10.605469l7.972656 7.972657c1.40625 1.40625 3.3125 2.195312 5.300782 2.195312 1.992187 0 3.898437-.792969 5.304687-2.195312l7.972656-7.972657c2.929688-2.929687 2.929688-7.675781 0-10.605469-2.929687-2.929687-7.679687-2.929687-10.609375 0zm0 0"/><path d="m70.109375 30.902344-7.96875-7.972656c-2.929687-2.929688-7.679687-2.929688-10.605469 0l-7.972656 7.972656c-2.929688 2.929687-2.929688 7.675781 0 10.605468 1.464844 1.464844 3.382812 2.195313 5.300781 2.195313s3.839844-.730469 5.304688-2.195313l2.667969-2.667968 2.667968 2.667968c2.929688 2.929688 7.679688 2.929688 10.605469 0 2.929687-2.929687 2.929687-7.679687 0-10.605468zm0 0"/><path d="m301 35.238281h34.78125c4.140625 0 7.5-3.355469 7.5-7.496093 0-4.144532-3.359375-7.5-7.5-7.5h-34.78125c-4.140625 0-7.496094 3.355468-7.496094 7.5 0 4.140624 3.355469 7.496093 7.496094 7.496093zm0 0"/><path d="m301 54.015625h34.78125c4.140625 0 7.5-3.359375 7.5-7.5s-3.359375-7.496094-7.5-7.496094h-34.78125c-4.140625 0-7.496094 3.355469-7.496094 7.496094s3.355469 7.5 7.496094 7.5zm0 0"/><path d="m301 72.792969h34.78125c4.140625 0 7.5-3.359375 7.5-7.5s-3.359375-7.5-7.5-7.5h-34.78125c-4.140625 0-7.496094 3.359375-7.496094 7.5s3.355469 7.5 7.496094 7.5zm0 0"/></svg>