<?xml version="1.0" encoding="iso-8859-1"?>
<!-- Generator: Adobe Illustrator 19.0.0, SVG Export Plug-In . SVG Version: 6.00 Build 0)  -->
<svg version="1.1" id="Capa_1" xmlns="http://www.w3.org/2000/svg" xmlns:xlink="http://www.w3.org/1999/xlink" x="0px" y="0px"
	 viewBox="0 0 511.998 511.998" style="enable-background:new 0 0 511.998 511.998;" xml:space="preserve">
<g transform="matrix(0.9762 0.217 -0.217 0.9762 61.36 -49.22)">
	
		<rect id="SVGCleanerId_0" x="87.214" y="38.993" transform="matrix(-0.9762 -0.217 0.217 -0.9762 450.3602 561.476)" style="fill:#B6B3C6;" width="337.585" height="434.038"/>
</g>
<g transform="matrix(0.9778 -0.2094 0.2094 0.9778 -47.713 59.01)">
	
		<rect id="SVGCleanerId_0_1_" x="87.208" y="38.992" transform="matrix(-0.9778 0.2094 -0.2094 -0.9778 559.9147 452.7154)" style="fill:#928DA9;" width="337.566" height="434.013"/>
</g>
<g>
	<rect id="SVGCleanerId_0_2_" x="87.216" y="38.99" style="fill:#DBD9E2;" width="337.576" height="434.026"/>
</g>
<rect x="87.216" y="38.99" style="fill:#C8C6D4;" width="24.113" height="434.026"/>
<polygon style="fill:#73BFBF;" points="376.562,360.49 135.437,360.49 159.549,328.34 135.437,296.19 376.562,296.19 352.45,328.34 
	"/>
<polygon style="fill:#79D1D1;" points="167.587,344.415 179.643,328.34 167.587,312.265 344.412,312.265 332.356,328.34 
	344.412,344.415 "/>
<path style="fill:#F26B6B;" d="M255.999,103.29c-64.3-56.263-112.525,24.113-88.413,64.3c25.122,41.87,88.413,80.375,88.413,80.375
	s63.29-38.505,88.413-80.375C368.525,127.402,320.3,47.027,255.999,103.29z"/>
<path style="fill:#E26161;" d="M198.017,170.863c-16.646-27.744,1.187-74.631,34.979-82.502
	c-52.114-22.068-86.541,44.009-65.409,79.229c25.122,41.87,88.413,80.375,88.413,80.375s5.05-3.072,12.861-8.423
	C248.227,224.998,214.705,198.675,198.017,170.863z"/>
<path d="M469.488,73.427l-37.165-8.261V38.99c0-4.161-3.374-7.535-7.535-7.535h-36.559l-5.264-24.579
	c-0.858-4.009-4.932-6.651-8.946-5.79L256.888,26.172L139.955,0.181c-4.064-0.904-8.088,1.659-8.991,5.721l-5.68,25.552H87.211
	c-4.161,0-7.535,3.374-7.535,7.535v25.136l-35.748,7.657c-4.01,0.859-6.649,4.931-5.79,8.946l37.39,174.577L36.79,429.587
	c-0.903,4.062,1.658,8.088,5.721,8.991l37.165,8.261v26.176c0,4.161,3.374,7.535,7.535,7.535h36.559l5.264,24.579
	c0.858,4.008,4.932,6.652,8.946,5.79c0,0,115.889-24.924,116.477-25.232l117.587,26.136c4.009,0.892,8.1-1.714,8.991-5.721
	l5.68-25.553h38.073c4.161,0,7.535-3.374,7.535-7.535v-25.136l35.748-7.657c4.009-0.859,6.65-4.931,5.79-8.946l-37.39-174.576
	l38.738-174.283C476.112,78.355,473.551,74.331,469.488,73.427z M372.817,31.454h-68.633L369.807,17.4L372.817,31.454z
	 M144.04,16.528l67.158,14.927h-70.475L144.04,16.528z M79.676,79.538v123.175L54.453,84.94L79.676,79.538z M53.136,425.502
	L79.676,306.1v125.302L53.136,425.502z M139.182,480.551h68.633l-65.623,14.055L139.182,480.551z M367.959,495.478l-67.159-14.927
	h70.476L367.959,495.478z M94.747,465.481V46.525h322.505v418.956H94.747z M432.322,432.467V309.292l25.224,117.773L432.322,432.467
	z M432.322,205.907V80.604l26.54,5.9L432.322,205.907z"/>
<path d="M383.302,292.821c-1.276-2.553-3.885-4.165-6.739-4.165h-39.853c-4.161,0-7.535,3.374-7.535,7.535
	c0,4.161,3.374,7.535,7.535,7.535h24.783l-15.07,20.094c-2.009,2.68-2.009,6.363,0,9.042l15.07,20.094H150.507l15.07-20.094
	c2.009-2.679,2.009-6.363,0-9.042l-15.07-20.094H301.21c4.161,0,7.535-3.374,7.535-7.535c0-4.161-3.374-7.535-7.535-7.535H135.437
	c-6.08,0-9.685,7.181-6.028,12.056l20.722,27.629l-20.722,27.629c-3.657,4.876-0.053,12.056,6.028,12.056h241.126
	c6.08,0,9.685-7.181,6.028-12.056l-20.722-27.629l20.722-27.629C384.303,298.429,384.579,295.373,383.302,292.821z"/>
<path d="M352.45,385.105h-192.9c-4.161,0-7.535,3.374-7.535,7.535c0,4.161,3.374,7.535,7.535,7.535h192.9
	c4.161,0,7.535-3.374,7.535-7.535C359.985,388.479,356.611,385.105,352.45,385.105z"/>
<path d="M352.45,417.255h-192.9c-4.161,0-7.535,3.374-7.535,7.535c0,4.161,3.374,7.535,7.535,7.535h192.9
	c4.161,0,7.535-3.374,7.535-7.535C359.985,420.629,356.611,417.255,352.45,417.255z"/>
<path d="M252.083,254.402c2.381,1.449,5.451,1.449,7.833,0c2.649-1.612,65.175-39.965,90.958-82.935
	c14.704-24.505,6.753-62.236-17.361-82.39c-10.77-9.001-23.591-13.356-37.077-12.584c-13.43,0.766-27.007,6.482-40.436,17.01
	c-13.429-10.528-27.006-16.245-40.436-17.01c-13.48-0.77-26.308,3.583-37.077,12.584c-24.114,20.155-32.065,57.884-17.361,82.39
	C186.908,214.438,249.434,252.791,252.083,254.402z M188.152,100.64c7.378-6.168,15.586-9.23,24.323-9.23
	c12.109,0,25.234,5.886,38.563,17.55c2.841,2.486,7.083,2.486,9.924,0c22.947-20.079,45.281-23.035,62.886-8.32
	c18.43,15.404,25.021,44.876,14.104,63.072c-20.343,33.904-67.975,66.292-81.953,75.333c-13.974-9.033-61.581-41.386-81.95-75.333
	C163.131,145.518,169.722,116.044,188.152,100.64z"/>
<g>
</g>
<g>
</g>
<g>
</g>
<g>
</g>
<g>
</g>
<g>
</g>
<g>
</g>
<g>
</g>
<g>
</g>
<g>
</g>
<g>
</g>
<g>
</g>
<g>
</g>
<g>
</g>
<g>
</g>
</svg>
