<?xml version="1.0" encoding="iso-8859-1"?>
<!-- Generator: Adobe Illustrator 19.0.0, SVG Export Plug-In . SVG Version: 6.00 Build 0)  -->
<svg version="1.1" id="Layer_1" xmlns="http://www.w3.org/2000/svg" xmlns:xlink="http://www.w3.org/1999/xlink" x="0px" y="0px"
	 viewBox="0 0 512 512" style="enable-background:new 0 0 512 512;" xml:space="preserve">
<path style="fill:#EF5959;" d="M276.307,275.852c22.791-11.451,49.636-18.057,78.38-18.057c82.681,0,149.71,54.69,149.71,122.149
	c0,67.471-67.027,122.161-149.71,122.161c-29.582,0-57.154-7.001-80.365-19.068"/>
<path style="fill:#DD4B4B;" d="M354.687,257.795c9.877,0,19.523,0.798,28.865,2.286c-68.839,10.995-120.786,60.477-120.786,119.863
	c0,59.396,51.947,108.88,120.787,119.875c-9.342,1.489-18.988,2.286-28.866,2.286c-82.681,0-149.709-54.69-149.709-122.161
	C204.977,312.485,272.006,257.795,354.687,257.795z"/>
<path style="fill:#9ACAEF;" d="M244.238,161.912H39.673c-17.711,0-32.069,14.358-32.069,32.069v276.054
	c0,17.711,14.358,32.069,32.069,32.069h204.564c17.711,0,32.069-14.358,32.069-32.069V193.982
	C276.307,176.27,261.949,161.912,244.238,161.912z"/>
<path style="fill:#8CBEE0;" d="M30.446,470.036V193.982c0-17.711,14.358-32.069,32.069-32.069H39.673
	c-17.711,0-32.069,14.358-32.069,32.069v276.054c0,17.711,14.358,32.069,32.069,32.069h22.842
	C44.804,502.104,30.446,487.747,30.446,470.036z"/>
<rect x="47.043" y="272.85" style="fill:#32A8EA;" width="189.815" height="189.815"/>
<rect x="90.193" y="9.895" style="fill:#F7CE4D;" width="103.536" height="152.018"/>
<rect x="90.193" y="9.895" style="fill:#E2B844;" width="28.027" height="152.018"/>
<polyline style="fill:#32A8EA;" points="395.054,262.294 395.054,72.747 314.307,72.747 314.307,262.294 "/>
<polyline style="fill:#2094C6;" points="341.763,262.294 341.763,72.747 314.307,72.747 314.307,262.294 "/>
<circle style="fill:#4D4D4D;" cx="146.848" cy="64.897" r="17.101"/>
<path d="M146.848,40.191c-13.622,0-24.705,11.083-24.705,24.705c0,13.623,11.083,24.706,24.705,24.706
	c13.622,0,24.705-11.083,24.705-24.706C171.553,51.274,160.47,40.191,146.848,40.191z M146.848,74.394
	c-5.237,0-9.497-4.26-9.497-9.498c0-5.237,4.26-9.497,9.497-9.497s9.497,4.26,9.497,9.497
	C156.346,70.133,152.084,74.394,146.848,74.394z"/>
<path d="M462.281,285.24c-3.322-2.566-8.097-1.958-10.667,1.366c-2.568,3.322-1.958,8.099,1.366,10.667
	c28.253,21.838,43.812,51.198,43.812,82.671c0,63.167-63.749,114.557-142.106,114.557c-25.364,0-50.043-5.419-71.764-15.696
	c0.64-2.824,0.989-5.756,0.989-8.77V280.623c21.464-9.971,45.828-15.224,70.776-15.224c27.682,0,54.516,6.434,77.602,18.606
	c1.131,0.596,2.345,0.879,3.539,0.879c2.73,0,5.371-1.476,6.734-4.058c1.959-3.715,0.534-8.314-3.18-10.272
	c-11.504-6.066-23.849-10.814-36.724-14.203V72.747c0-4.199-3.404-7.604-7.604-7.604h-80.746c-4.2,0-7.604,3.405-7.604,7.604
	v183.597c-7.821,2.059-15.438,4.634-22.792,7.688v-70.051c0-21.876-17.798-39.673-39.673-39.673h-42.913V9.895
	c0-4.199-3.405-7.604-7.604-7.604H90.19c-4.199,0-7.604,3.405-7.604,7.604v144.413H39.673C17.797,154.308,0,172.106,0,193.982
	v276.054c0,21.876,17.797,39.673,39.673,39.673h39.004c4.199,0,7.604-3.405,7.604-7.604c0-4.199-3.405-7.604-7.604-7.604H39.673
	c-13.49-0.001-24.465-10.976-24.465-24.466V193.982c0-13.49,10.975-24.465,24.465-24.465h66.856v61.218
	c0,4.199,3.405,7.604,7.604,7.604h20.217v26.903H47.047c-4.199,0-7.604,3.405-7.604,7.604v189.817c0,4.199,3.405,7.604,7.604,7.604
	h189.817c4.199,0,7.604-3.405,7.604-7.604V329.925c0-4.199-3.405-7.604-7.604-7.604s-7.604,3.405-7.604,7.604v125.133H54.651
	V280.449h79.701v123.236c0,4.199,3.405,7.604,7.604,7.604c4.199,0,7.604-3.405,7.604-7.604V280.449h79.701v24.13
	c0,4.199,3.405,7.604,7.604,7.604s7.604-3.405,7.604-7.604v-31.734c0-4.199-3.405-7.604-7.604-7.604H149.56v-26.903h20.217
	c4.199,0,7.604-3.405,7.604-7.604v-61.218h66.856c13.49,0,24.465,10.975,24.465,24.465v276.054c0,13.49-10.975,24.466-24.465,24.466
	H104.025c-4.199,0-7.604,3.405-7.604,7.604c0,4.199,3.405,7.604,7.604,7.604h140.213c13.449,0,25.349-6.733,32.527-16.998
	c23.664,11.129,50.451,16.998,77.922,16.998c41.736,0,81.039-13.315,110.668-37.492C495.436,447.673,512,414.903,512,379.944
	C512,344.182,493.878,309.663,462.281,285.24z M321.911,80.351h65.539V253.02c-10.7-1.869-21.672-2.83-32.763-2.83
	c-11.079,0-22.061,0.964-32.775,2.837V80.351H321.911z M162.173,223.13h-40.435v-53.614h40.435V223.13z M97.794,154.308V17.499
	h88.324v136.809L97.794,154.308L97.794,154.308z"/>
<path d="M432.593,449.699c1.038,0.484,2.13,0.713,3.205,0.713c2.865,0,5.609-1.627,6.898-4.395
	c9.278-19.921,14.182-42.769,14.182-66.071c0-23.295-4.904-46.139-14.182-66.06c-1.772-3.806-6.297-5.457-10.103-3.682
	c-3.807,1.773-5.457,6.296-3.683,10.103c8.347,17.924,12.76,38.547,12.76,59.639c0,21.1-4.413,41.728-12.76,59.651
	C427.137,443.402,428.786,447.926,432.593,449.699z"/>
<path d="M347.694,309.71v140.48c0,4.199,3.404,7.604,7.604,7.604c4.2,0,7.604-3.405,7.604-7.604V309.71
	c0-4.199-3.404-7.604-7.604-7.604C351.097,302.106,347.694,305.51,347.694,309.71z"/>
<g>
</g>
<g>
</g>
<g>
</g>
<g>
</g>
<g>
</g>
<g>
</g>
<g>
</g>
<g>
</g>
<g>
</g>
<g>
</g>
<g>
</g>
<g>
</g>
<g>
</g>
<g>
</g>
<g>
</g>
</svg>
