<svg height="512pt" viewBox="0 -1 512 512" width="512pt" xmlns="http://www.w3.org/2000/svg"><path d="m132.546875 85.273438h195.464844v29.058593h-195.464844zm0 0" fill="#fc9e51"/><path d="m218.90625 50.921875h81.253906v136.75h-81.253906zm0 0" fill="#f4d553"/><path d="m218.90625 50.921875h29.257812v136.75h-29.257812zm0 0" fill="#fc9e51"/><path d="m333.988281 197.265625v35.476563h-148.90625v-35.476563c0-17.214844 13.953125-31.164063 31.167969-31.164063h86.5625c17.214844 0 31.175781 13.949219 31.175781 31.164063zm0 0" fill="#fc9e51"/><path d="m333.988281 197.265625v35.476563h-110.125v-35.476563c0-17.214844 13.949219-31.164063 31.167969-31.164063h47.78125c17.214844 0 31.175781 13.949219 31.175781 31.164063zm0 0" fill="#f4d553"/><path d="m449.566406 402.054688c0-104.953126-85.082031-190.035157-190.035156-190.035157s-190.03125 85.082031-190.03125 190.035157c0 104.949218 85.082031 100.3125 190.035156 100.3125 104.949219 0 190.03125 4.636718 190.03125-100.3125zm0 0" fill="#bda4e0"/><path d="m240.597656 502.386719c-96.0625.144531-171.097656-1.773438-171.097656-100.332031 0-104.953126 85.074219-190.035157 190.027344-190.035157-58.613282 0-106.132813 85.082031-106.132813 190.035157 0 93.378906 37.625 100 87.203125 100.332031zm0 0" fill="#8e66b5"/><path d="m504.398438 99.804688c0 22.285156-18.066407 40.339843-40.351563 40.339843-.902344 0-1.792969-.03125-2.675781-.089843 1.105468 3.667968 1.703125 7.574218 1.703125 11.609374 0 13.058594-6.214844 24.675782-15.847657 32.046876-6.792968 5.199218-15.289062 8.292968-24.503906 8.292968-22.285156 0-40.339844-18.066406-40.339844-40.339844v-103.710937c0-22.28125 18.054688-40.351563 40.339844-40.351563 6.355469 0 12.378906 1.472657 17.722656 4.097657 13.402344 6.558593 22.628907 20.328125 22.628907 36.253906 0 4.035156-.597657 7.929687-1.703125 11.601563.882812-.0625 1.773437-.09375 2.675781-.09375 22.285156 0 40.351563 18.058593 40.351563 40.34375zm0 0" fill="#cdcfe0"/><path d="m179.375 99.804688c0 38.777343-25.710938 71.558593-61.015625 82.222656-7.867187 2.382812-16.21875 3.660156-24.867187 3.660156-47.441407 0-85.886719-38.457031-85.886719-85.882812 0-47.429688 38.445312-85.886719 85.886719-85.886719 8.648437 0 17 1.277343 24.867187 3.660156 35.304687 10.667969 61.015625 43.445313 61.015625 82.226563zm0 0" fill="#2d9e7b"/><path d="m179.375 99.804688c0 38.777343-25.710938 71.558593-61.015625 82.222656-35.3125-10.664063-61.011719-43.445313-61.011719-82.222656 0-38.78125 25.699219-71.558594 61.011719-82.226563 35.304687 10.667969 61.015625 43.445313 61.015625 82.226563zm0 0" fill="#72d6b7"/><path d="m447.226562 183.710938c-6.792968 5.199218-15.289062 8.292968-24.503906 8.292968-22.285156 0-40.339844-18.066406-40.339844-40.339844v-103.710937c0-22.28125 18.054688-40.351563 40.339844-40.351563 6.355469 0 12.378906 1.472657 17.722656 4.097657l.007813.011719c-40.429687-9.015626-65.535156 63.660156-20.609375 83.46875 0 0-46.941406 60.769531 27.382812 88.53125zm0 0" fill="#abaec4"/><path d="m412.855469 289.503906c-3.480469 2.347656-4.394531 7.074219-2.042969 10.554688 20.378906 30.167968 31.148438 65.433594 31.148438 101.996094 0 29.421874-6.921876 50.636718-21.15625 64.847656-28.148438 28.09375-83.902344 28.003906-148.464844 27.875-8.464844-.015625-17.148438-.015625-25.613282 0-64.566406.121094-120.316406.222656-148.464843-27.875-14.238281-14.214844-21.160157-35.425782-21.160157-64.847656 0-100.59375 81.839844-182.433594 182.429688-182.433594 48.730469 0 94.542969 18.976562 129 53.433594 2.96875 2.96875 7.78125 2.96875 10.75 0 2.972656-2.96875 2.972656-7.785157 0-10.753907-16.96875-16.96875-36.488281-30.460937-57.6875-40.144531v-24.890625c0-19.699219-14.777344-36.003906-33.828125-38.441406v-36.886719h20.253906c4.199219 0 7.601563-3.40625 7.601563-7.605469v-29.054687c0-4.199219-3.402344-7.605469-7.601563-7.605469h-20.253906v-26.75c0-4.199219-3.40625-7.601563-7.605469-7.601563h-81.257812c-4.199219 0-7.601563 3.402344-7.601563 7.601563v26.75h-26.976562c-9.96875-40.902344-46.910157-71.359375-90.835938-71.359375-51.550781 0-93.488281 41.941406-93.488281 93.492188 0 14.285156 3.140625 28.003906 9.335938 40.769531 1.835937 3.78125 6.382812 5.355469 10.160156 3.523437 3.78125-1.835937 5.355468-6.382812 3.523437-10.160156-5.183593-10.683594-7.8125-22.167969-7.8125-34.132812 0-43.164063 35.117188-78.28125 78.28125-78.28125 43.164063 0 78.28125 35.117187 78.28125 78.28125 0 43.164062-35.117187 78.28125-78.28125 78.28125-21.0625 0-40.820312-8.246094-55.640625-23.21875-2.953125-2.984376-7.769531-3.007813-10.753906-.054688s-3.007812 7.769531-.054688 10.753906c17.695313 17.878906 41.296876 27.726563 66.449219 27.726563 43.925781 0 80.867188-30.457031 90.835938-71.359375h26.976562v36.886718c-19.046875 2.441407-33.820312 18.746094-33.820312 38.445313v25.003906c-68.136719 31.222657-115.585938 100.0625-115.585938 179.78125 0 33.667969 8.382813 58.402344 25.621094 75.613281 32.613281 32.550782 91.28125 32.453126 159.238281 32.320313 8.445313-.015625 17.109375-.015625 25.558594 0 4.15625.007813 8.265625.015625 12.347656.015625 62.667969 0 116.269532-1.773438 146.886719-32.335938 17.242187-17.210937 25.621094-41.945312 25.621094-75.613281 0-39.605469-11.671875-77.816406-33.757813-110.507812-2.347656-3.476563-7.074218-4.390625-10.554687-2.039063zm-92.441407-196.625v13.847656h-12.648437v-13.847656zm-27.859374-34.351562v99.96875h-66.046876v-99.96875zm-105.832032 48.199218c.167969-2.285156.253906-4.59375.253906-6.921874 0-2.328126-.085937-4.636719-.253906-6.925782h24.578125v13.847656zm5.964844 90.539063c0-12.992187 10.570312-23.5625 23.5625-23.5625h86.5625c13 0 23.574219 10.570313 23.574219 23.5625v18.691406c-21.164063-7.585937-43.707031-11.542969-66.855469-11.542969-23.449219 0-45.957031 4.117188-66.84375 11.648438zm0 0"/><path d="m353.371094 92.878906c1.050781 0 2.117187-.21875 3.140625-.679687l69.359375-31.496094c3.824218-1.738281 5.515625-6.246094 3.777344-10.070313-1.734376-3.820312-6.242188-5.515624-10.066407-3.777343l-69.359375 31.496093c-3.824218 1.738282-5.515625 6.242188-3.78125 10.066407 1.273438 2.804687 4.039063 4.460937 6.929688 4.460937zm0 0"/><path d="m350.222656 121.257812 69.359375 31.496094c1.019531.464844 2.089844.683594 3.140625.683594 2.890625 0 5.65625-1.660156 6.925782-4.460938 1.738281-3.824218.046874-8.332031-3.777344-10.070312l-69.359375-31.496094c-3.824219-1.738281-8.332031-.042968-10.070313 3.78125-1.734375 3.820313-.042968 8.328125 3.78125 10.066406zm0 0"/><path d="m512 99.804688c0-24.261719-18.109375-44.371094-41.519531-47.523438.128906-1.4375.195312-2.882812.195312-4.332031 0-26.4375-21.511719-47.949219-47.949219-47.949219-26.441406 0-47.953124 21.511719-47.953124 47.949219 0 4.199219 3.40625 7.605469 7.605468 7.605469 4.199219 0 7.605469-3.40625 7.605469-7.605469 0-18.050781 14.6875-32.742188 32.742187-32.742188 18.054688 0 32.742188 14.691407 32.742188 32.742188 0 3.195312-.464844 6.363281-1.382812 9.421875-.714844 2.386718-.214844 4.972656 1.335937 6.921875s3.957031 3.011719 6.445313 2.851562c.851562-.058593 1.546874-.082031 2.183593-.082031 18.054688 0 32.742188 14.6875 32.742188 32.742188 0 18.050781-14.6875 32.742187-32.742188 32.742187-.636719 0-1.332031-.027344-2.183593-.082031-2.484376-.160156-4.894532.902344-6.445313 2.851562-1.554687 1.949219-2.050781 4.535156-1.335937 6.921875.917968 3.054688 1.382812 6.226563 1.382812 9.421875 0 18.054688-14.6875 32.742188-32.742188 32.742188-18.054687 0-32.742187-14.6875-32.742187-32.742188 0-4.199218-3.40625-7.605468-7.605469-7.605468-4.199218 0-7.605468 3.40625-7.605468 7.605468 0 26.4375 21.511718 47.949219 47.953124 47.949219 26.4375 0 47.949219-21.511719 47.949219-47.949219 0-1.453125-.066406-2.898437-.195312-4.335937 23.410156-3.152344 41.519531-23.261719 41.519531-47.519531zm0 0"/></svg>