<?xml version="1.0" encoding="iso-8859-1"?>
<!-- Generator: Adobe Illustrator 19.0.0, SVG Export Plug-In . SVG Version: 6.00 Build 0)  -->
<svg version="1.1" id="Layer_1" xmlns="http://www.w3.org/2000/svg" xmlns:xlink="http://www.w3.org/1999/xlink" x="0px" y="0px"
	 viewBox="0 0 512 512" style="enable-background:new 0 0 512 512;" xml:space="preserve">
<path style="fill:#FDC00F;" d="M229.643,152.415l27.424,0.168l0.271-44.063l-27.424-0.168c-15.054-0.092-22.481-18.34-11.771-28.919
	l19.511-19.272l-30.965-31.349l-19.511,19.272c-10.71,10.579-28.865,2.928-28.773-12.126l0.168-27.425l-44.063-0.271l-0.168,27.424
	c-0.092,15.054-18.34,22.481-28.919,11.77L66.151,27.946L34.802,58.913l19.272,19.511c10.579,10.71,2.928,28.865-12.126,28.773
	l-27.424-0.168l-0.271,44.063l27.424,0.168c15.054,0.092,22.481,18.34,11.77,28.919l-19.511,19.272l30.966,31.348l19.511-19.272
	c10.71-10.579,28.865-2.928,28.773,12.126l-0.168,27.424l44.063,0.271l0.168-27.425c0.092-15.054,18.34-22.481,28.919-11.77
	l19.272,19.511l31.348-30.966l-19.272-19.511C206.937,170.476,214.588,152.322,229.643,152.415z M135.605,160.819
	c-17.128-0.106-30.927-14.075-30.822-31.203s14.075-30.927,31.203-30.822c17.128,0.106,30.927,14.075,30.822,31.203
	C166.703,147.124,152.733,160.923,135.605,160.819z"/>
<path style="fill:#52D6C6;" d="M465.581,330.078l33.625-12.556l-20.174-54.025l-33.625,12.556
	c-18.457,6.893-36.034-11.971-27.856-29.897l14.897-32.655l-52.466-23.936l-14.897,32.655c-8.178,17.925-33.945,17.015-40.837-1.442
	l-12.556-33.625l-54.025,20.174l12.556,33.625c6.893,18.457-11.971,36.034-29.897,27.856l-32.655-14.897l-6.44,14.118
	l-11.091,24.309l-6.405,14.039l32.655,14.897c17.925,8.178,17.015,33.945-1.442,40.837l-33.625,12.556l20.174,54.025l33.625-12.556
	c18.457-6.893,36.034,11.971,27.856,29.897l-14.897,32.655l52.467,23.936l14.897-32.655c8.178-17.925,33.945-17.015,40.837,1.442
	l12.556,33.625l54.025-20.175l-12.556-33.625c-6.893-18.458,11.971-36.034,29.897-27.856l32.655,14.897l23.936-52.466
	l-32.655-14.897C446.215,362.739,447.125,336.971,465.581,330.078z M354.464,384.121c-21.001,7.842-44.381-2.824-52.223-23.825
	s2.824-44.381,23.825-52.223c21.001-7.842,44.381,2.824,52.223,23.825C386.131,352.897,375.464,376.278,354.464,384.121z"/>
<g style="opacity:0.1;">
	<path d="M465.581,330.078l33.625-12.556l-20.174-54.025l-13.788,5.148C409.303,388.457,321.09,439.678,255.889,461.573
		l-7.808,17.116l52.467,23.936l14.897-32.655c8.178-17.925,33.945-17.015,40.837,1.442l12.556,33.625l54.025-20.175l-12.556-33.625
		c-6.893-18.457,11.971-36.034,29.897-27.856l32.655,14.897l23.936-52.466l-32.655-14.897
		C446.215,362.739,447.125,336.971,465.581,330.078z"/>
</g>
<g style="opacity:0.1;">
	<path d="M231.119,152.415l27.424,0.168l0.271-44.063l-27.424-0.168c-15.054-0.092-22.481-18.34-11.771-28.919l19.511-19.272
		l-24.494-24.797c-1.958,91.874-55.244,152.179-100.03,186.78c0.039,0.495,0.06,0.998,0.057,1.51l-0.168,27.424l44.063,0.271
		l0.168-27.425c0.092-15.054,18.34-22.481,28.919-11.77l19.272,19.511l31.348-30.966l-19.272-19.511
		C208.414,170.476,216.065,152.322,231.119,152.415z"/>
</g>
<path d="M180.023,216.85l19.272,19.512c1.419,1.436,3.35,2.25,5.369,2.262c2.044,0.021,3.96-0.777,5.396-2.196l31.348-30.966
	c2.991-2.954,3.02-7.773,0.066-10.764l-19.273-19.512c-4.045-4.096-2.516-8.79-1.951-10.131c0.563-1.336,2.839-5.68,8.545-5.68
	c0.022,0,0.047,0,0.069,0l27.424,0.168c0.016,0,0.031,0,0.048,0c4.181,0,7.585-3.378,7.611-7.565l0.271-44.063
	c0.012-2.019-0.777-3.959-2.196-5.395c-1.419-1.436-3.35-2.25-5.369-2.262l-27.424-0.168c-5.756-0.035-7.994-4.436-8.543-5.785
	c-0.549-1.348-2.022-6.062,2.074-10.107l19.511-19.272c2.991-2.954,3.02-7.773,0.066-10.764l-30.966-31.349
	c-1.419-1.436-3.35-2.25-5.369-2.262c-2.007,0.018-3.959,0.778-5.396,2.196l-19.512,19.272c-4.095,4.046-8.791,2.516-10.131,1.952
	c-1.342-0.566-5.715-2.857-5.679-8.614l0.168-27.424c0.025-4.204-3.361-7.633-7.565-7.658L113.828,0
	c-1.997,0.015-3.959,0.778-5.396,2.196c-1.436,1.419-2.25,3.35-2.262,5.369l-0.168,27.424c-0.036,5.757-4.437,7.995-5.786,8.544
	c-1.348,0.549-6.062,2.021-10.107-2.075L70.836,21.946c-1.419-1.436-3.35-2.25-5.369-2.262c-0.016,0-0.031,0-0.047,0
	c-2.002,0-3.925,0.789-5.349,2.196L28.722,52.845c-2.991,2.954-3.02,7.773-0.066,10.764l19.272,19.512
	c4.046,4.096,2.516,8.792,1.951,10.132c-0.563,1.336-2.839,5.679-8.544,5.679c-0.022,0-0.047,0-0.07,0l-27.424-0.168
	c-0.016,0-0.031,0-0.048,0c-4.181,0-7.585,3.377-7.611,7.565l-0.271,44.063c-0.012,2.019,0.777,3.959,2.196,5.395
	s3.35,2.25,5.369,2.262l27.424,0.168c5.757,0.035,7.995,4.437,8.543,5.785c0.549,1.348,2.022,6.062-2.074,10.107l-19.512,19.272
	c-1.436,1.418-2.25,3.35-2.262,5.369c-0.012,2.019,0.777,3.959,2.196,5.395l30.966,31.349c1.419,1.436,3.35,2.25,5.369,2.262
	c0.015,0,0.03,0,0.047,0c2.002,0,3.925-0.789,5.349-2.196l19.511-19.272c4.097-4.044,8.792-2.516,10.132-1.952
	c1.342,0.566,5.715,2.857,5.68,8.615l-0.169,27.424c-0.012,2.019,0.777,3.959,2.196,5.395s3.35,2.25,5.369,2.262l44.063,0.271
	c0.016,0,0.031,0,0.048,0c4.182,0,7.585-3.376,7.611-7.565l0.168-27.424c0.036-5.757,4.437-7.995,5.786-8.544
	C171.263,214.226,175.977,212.756,180.023,216.85z M164.176,200.674c-9.356,3.809-15.207,12.449-15.27,22.551l-0.122,19.812
	l-28.84-0.178l0.123-19.812c0.062-10.102-5.682-18.814-14.991-22.736c-9.309-3.923-19.557-1.95-26.742,5.148L64.24,219.384
	l-20.268-20.519l14.097-13.924c7.187-7.098,9.285-17.32,5.477-26.677c-3.808-9.356-12.449-15.206-22.55-15.269l-19.812-0.122
	l0.178-28.84l19.812,0.122c0.055,0,0.109,0,0.163,0c10.031,0,18.671-5.731,22.573-14.99c3.923-9.309,1.951-19.557-5.148-26.744
	L44.837,58.326l20.518-20.268l13.924,14.097c7.099,7.187,17.321,9.286,26.677,5.477c9.356-3.809,15.207-12.449,15.27-22.551
	l0.122-19.812l28.84,0.179l-0.122,19.812c-0.062,10.101,5.682,18.813,14.991,22.735c9.307,3.922,19.557,1.951,26.742-5.148
	l14.096-13.924l20.268,20.519l-14.096,13.924c-7.187,7.098-9.285,17.32-5.477,26.677c3.808,9.356,12.449,15.206,22.55,15.269
	l19.812,0.122l-0.178,28.84l-19.812-0.122c-0.054,0-0.107,0-0.161,0c-10.032,0-18.673,5.732-22.575,14.992
	c-3.922,9.308-1.95,19.556,5.148,26.741l13.924,14.097l-20.518,20.268l-13.924-14.097
	C183.754,198.965,173.531,196.865,164.176,200.674z"/>
<path d="M135.302,90.53c-0.08,0-0.16-0.001-0.241-0.001c-21.187,0-38.49,17.172-38.621,38.388
	c-0.13,21.297,17.089,38.731,38.387,38.861c0.082,0,0.163,0.001,0.246,0.001c10.225,0,19.854-3.954,27.136-11.145
	c7.34-7.25,11.417-16.925,11.481-27.242c0.064-10.316-3.894-20.041-11.144-27.38C155.294,94.67,145.62,90.594,135.302,90.53z
	 M151.511,145.804c-4.412,4.358-10.245,6.752-16.441,6.752c-0.05,0-0.099-0.001-0.149-0.001
	c-12.903-0.079-23.337-10.641-23.258-23.545c0.079-12.855,10.562-23.258,23.4-23.258c0.048,0,0.097,0.001,0.146,0.001
	c6.251,0.039,12.112,2.509,16.505,6.956c4.393,4.447,6.791,10.34,6.752,16.59C158.428,135.549,155.958,141.41,151.511,145.804z"/>
<path d="M467.514,336.558l33.625-12.556c1.892-0.706,3.425-2.135,4.262-3.971c0.838-1.837,0.912-3.931,0.206-5.822l-20.174-54.025
	c-0.706-1.891-2.134-3.424-3.971-4.261c-1.838-0.838-3.932-0.911-5.822-0.206l-33.624,12.557c-5.684,2.125-11.548,0.74-15.685-3.7
	c-4.137-4.44-5.103-10.386-2.584-15.907l14.897-32.655c1.745-3.825,0.059-8.34-3.765-10.085l-52.466-23.937
	c-1.838-0.837-3.932-0.911-5.822-0.206c-1.892,0.706-3.425,2.135-4.262,3.971l-14.897,32.656c-2.519,5.521-7.639,8.691-13.708,8.475
	c-6.065-0.214-10.953-3.737-13.075-9.421l-12.556-33.625c-0.706-1.891-2.135-3.424-3.972-4.261
	c-1.838-0.838-3.932-0.911-5.821-0.206l-54.025,20.175c-1.892,0.706-3.425,2.135-4.262,3.971c-0.838,1.838-0.912,3.932-0.206,5.822
	l12.557,33.625c2.122,5.684,0.74,11.547-3.7,15.684c-4.44,4.138-10.386,5.101-15.907,2.585l-32.655-14.897
	c-3.823-1.747-8.339-0.06-10.084,3.765l-6.441,14.118c-1.745,3.825-0.059,8.34,3.765,10.085c3.823,1.746,8.339,0.06,10.085-3.765
	l3.282-7.193l25.73,11.737c11.147,5.086,23.639,3.056,32.604-5.297c8.963-8.351,11.869-20.67,7.583-32.148l-9.894-26.493
	l39.764-14.85l9.894,26.494c4.286,11.478,14.554,18.877,26.799,19.308c12.219,0.441,23.009-6.223,28.096-17.369l11.738-25.731
	l38.616,17.617l-11.738,25.73c-5.086,11.146-3.056,23.639,5.297,32.604c8.351,8.963,20.669,11.869,32.148,7.584l26.493-9.894
	l14.849,39.764l-26.493,9.893c-11.477,4.286-18.877,14.554-19.309,26.799c-0.432,12.243,6.223,23.009,17.37,28.095l25.73,11.738
	l-17.617,38.617l-25.73-11.738c-11.147-5.087-23.638-3.056-32.603,5.297c-8.964,8.352-11.87,20.67-7.583,32.148l9.894,26.493
	l-39.764,14.85l-9.894-26.494c-4.287-11.477-14.554-18.877-26.799-19.308c-12.242-0.46-23.009,6.222-28.095,17.369l-11.738,25.731
	l-38.616-17.617l11.738-25.73c5.086-11.146,3.056-23.639-5.297-32.604c-8.352-8.963-20.67-11.868-32.148-7.583l-26.493,9.894
	l-14.849-39.764l26.494-9.893c11.477-4.287,18.877-14.555,19.308-26.799c0.432-12.244-6.223-23.01-17.37-28.096l-25.73-11.738
	l3.246-7.113c1.746-3.825,0.059-8.34-3.765-10.085c-3.824-1.746-8.338-0.06-10.084,3.765l-6.405,14.039
	c-0.838,1.837-0.912,3.931-0.206,5.822c0.706,1.891,2.135,3.424,3.971,4.261l32.655,14.897c5.521,2.519,8.689,7.643,8.475,13.708
	c-0.214,6.065-3.737,10.953-9.421,13.076l-33.625,12.556c-1.892,0.706-3.425,2.135-4.262,3.971
	c-0.838,1.837-0.912,3.932-0.206,5.822l20.175,54.024c1.471,3.939,5.857,5.937,9.792,4.467l33.625-12.556
	c5.682-2.125,11.546-0.741,15.685,3.7c4.137,4.439,5.103,10.385,2.584,15.906l-14.897,32.656c-1.745,3.825-0.059,8.34,3.765,10.085
	L296.66,508.9c1.837,0.838,3.933,0.911,5.821,0.206c1.892-0.706,3.425-2.135,4.262-3.971l14.897-32.656
	c2.519-5.521,7.649-8.701,13.708-8.475c6.064,0.214,10.952,3.737,13.075,9.421l12.557,33.625c1.143,3.061,4.045,4.951,7.132,4.951
	c0.885,0,1.784-0.155,2.662-0.483l54.025-20.175c1.892-0.706,3.425-2.135,4.262-3.971c0.837-1.838,0.911-3.932,0.205-5.822
	l-12.557-33.625c-2.122-5.684-0.74-11.547,3.7-15.684c4.44-4.138,10.385-5.104,15.907-2.585l32.655,14.898
	c1.837,0.837,3.933,0.911,5.822,0.206c1.892-0.706,3.425-2.135,4.262-3.971l23.936-52.467c0.838-1.838,0.912-3.932,0.206-5.822
	c-0.706-1.891-2.135-3.424-3.971-4.261l-32.655-14.897c-5.521-2.518-8.689-7.643-8.474-13.708
	C458.308,343.568,461.829,338.68,467.514,336.558z"/>
<path d="M339.586,393.648c5.59-0.001,11.274-0.98,16.811-3.048c24.899-9.298,37.591-37.119,28.292-62.017
	c-9.297-24.898-37.117-37.592-62.017-28.294c-24.898,9.298-37.591,37.119-28.293,62.018
	C301.609,381.669,320.037,393.65,339.586,393.648z M327.998,314.551c3.789-1.416,7.675-2.086,11.502-2.086
	c13.373,0,25.983,8.197,30.929,21.443c6.361,17.034-2.322,36.068-19.357,42.43c-17.037,6.363-36.071-2.322-42.431-19.357
	C302.281,339.947,310.964,320.913,327.998,314.551z"/>
<g>
</g>
<g>
</g>
<g>
</g>
<g>
</g>
<g>
</g>
<g>
</g>
<g>
</g>
<g>
</g>
<g>
</g>
<g>
</g>
<g>
</g>
<g>
</g>
<g>
</g>
<g>
</g>
<g>
</g>
</svg>
